<?xml version="1.0" encoding="UTF-8"?>
<svg version="1.1" xmlns="http://www.w3.org/2000/svg" width="512" height="512">
<path d="M0 0 C4.55698296 1.50844575 6.50464789 5.24376608 9 9.0625 C9.9793653 10.52417745 10.95987215 11.98509054 11.94140625 13.4453125 C12.69768311 14.57694824 12.69768311 14.57694824 13.46923828 15.73144531 C15.90363515 19.33916711 18.41874859 22.88838779 20.9375 26.4375 C21.94664487 27.86325982 22.95575929 29.28904118 23.96484375 30.71484375 C24.46612793 31.42237793 24.96741211 32.12991211 25.48388672 32.85888672 C27.99343923 36.40297296 30.49640218 39.9517061 33 43.5 C33.99996804 44.91668922 34.99996805 46.33335588 36 47.75 C38 50.58333333 40 53.41666667 42 56.25 C42.49564453 56.95213623 42.99128906 57.65427246 43.50195312 58.37768555 C44.49554509 59.78532813 45.48903573 61.19304224 46.48242188 62.60083008 C49.0796114 66.28117733 51.67888339 69.96002999 54.28125 73.63671875 C54.82007813 74.39855469 55.35890625 75.16039062 55.9140625 75.9453125 C56.93944807 77.39499554 57.96544782 78.84424444 58.9921875 80.29296875 C61.72381233 84.15648232 64.39519791 88.04979306 67 92 C73.28513004 86.81239418 79.00311158 81.12572734 84.74609375 75.3515625 C85.76720048 74.32858694 86.788531 73.30583472 87.81007385 72.28329468 C90.47711353 69.61246639 93.14113436 66.93864718 95.80450439 64.26416016 C98.5312385 61.52713264 101.26086305 58.79299099 103.99023438 56.05859375 C109.32963089 50.70852452 114.66583652 45.35528727 120 40 C123.61692773 41.52897576 125.9203522 43.67815633 128.67675781 46.44970703 C129.59741028 47.37051056 130.51806274 48.29131409 131.46661377 49.24002075 C132.4622253 50.24584465 133.45772648 51.2517778 134.453125 52.2578125 C135.47830193 53.28672149 136.50392275 54.31518837 137.52996826 55.3432312 C140.22393164 58.04481581 142.91183368 60.75235341 145.59851074 63.46118164 C148.34328304 66.22644489 151.09375472 68.98602633 153.84375 71.74609375 C159.23475573 77.15852274 164.61936964 82.57725438 170 88 C173.05745034 86.54099458 175.05686825 85.14640858 177.36328125 82.6484375 C178.31086304 81.63124634 178.31086304 81.63124634 179.27758789 80.59350586 C180.28486938 79.49534546 180.28486938 79.49534546 181.3125 78.375 C182.75520381 76.82161038 184.19791225 75.26822507 185.640625 73.71484375 C186.36958984 72.92577637 187.09855469 72.13670898 187.84960938 71.32373047 C191.06916692 67.8446491 194.31657924 64.39196117 197.5625 60.9375 C198.80361279 59.61349436 200.04449799 58.28927532 201.28515625 56.96484375 C203.77172001 54.31080819 206.25865964 51.65712612 208.74609375 49.00390625 C209.36613281 48.34245605 209.98617188 47.68100586 210.625 46.99951172 C211.86805567 45.67390938 213.11154052 44.34870935 214.35546875 43.02392578 C217.60334536 39.56367488 220.84161697 36.09506877 224.06640625 32.61328125 C224.73542969 31.89333984 225.40445312 31.17339844 226.09375 30.43164062 C227.36621947 29.06196863 228.63594798 27.6897428 229.90234375 26.31445312 C233.39890531 22.55759198 236.98349119 19.19731219 241 16 C240.44942495 23.30882209 239.50890523 30.42706991 238.13340759 37.62394714 C237.94516418 38.63140488 237.75692078 39.63886261 237.56297302 40.67684937 C236.93480642 44.03184162 236.2993083 47.38540149 235.66381836 50.73901367 C235.20268962 53.19328582 234.74201447 55.64764322 234.28175449 58.10207844 C233.17606958 63.99220044 232.06578862 69.88143822 230.95327378 75.77027254 C229.66531182 82.58906106 228.38399785 89.40908944 227.10266113 96.22912598 C223.71989299 114.21630828 220.32815179 132.20180213 216.9375 150.1875 C209.368125 190.385625 201.79875 230.58375 194 272 C66.62 272 -60.76 272 -192 272 C-199.755 230.87375 -207.51 189.7475 -215.5 147.375 C-217.95373047 134.37786621 -220.40746094 121.38073242 -222.93554688 107.98974609 C-225.91894531 92.14770508 -225.91894531 92.14770508 -227.31311035 84.73696899 C-228.28961575 79.54839331 -229.26910328 74.36039106 -230.25061035 69.17276001 C-231.50160592 62.56071973 -232.74699136 55.94764623 -233.98877811 49.33386922 C-234.44600517 46.90359445 -234.9050775 44.47366597 -235.36617947 42.04412341 C-235.9877136 38.76783555 -236.60255164 35.49036018 -237.21569824 32.2124939 C-237.48993244 30.78001533 -237.48993244 30.78001533 -237.76970673 29.31859779 C-238.60525988 24.81322215 -239.21753611 20.60692656 -239 16 C-231.63748795 22.13542671 -225.02573161 28.73369413 -218.78125 36 C-216.9257479 38.08337078 -214.98776899 40.04281207 -213 42 C-209.74970017 45.20029522 -206.75275755 48.54224576 -203.78125 52 C-201.9257479 54.08337078 -199.98776899 56.04281207 -198 58 C-194.74970017 61.20029522 -191.75275755 64.54224576 -188.78125 68 C-186.30216289 70.78353641 -183.64481635 73.36768009 -180.984375 75.9765625 C-178.37779725 78.63445083 -176.00145653 81.45939034 -173.640625 84.3359375 C-171.82505821 86.35659414 -171.82505821 86.35659414 -168 88 C-152.16 72.16 -136.32 56.32 -120 40 C-116.02559621 41.9872019 -113.98609923 43.78226821 -110.89599609 46.90869141 C-110.40119247 47.40641556 -109.90638885 47.90413971 -109.39659119 48.41694641 C-108.32656389 49.49456571 -107.25885281 50.57448882 -106.19321823 51.65645218 C-104.50841974 53.36680807 -102.81742455 55.07081083 -101.12466431 56.77328491 C-97.5358154 60.38496621 -93.95487383 64.00442538 -90.375 67.625 C-86.22002203 71.82711643 -82.0618991 76.02601532 -77.89528275 80.2165947 C-76.22598894 81.89889379 -74.56280884 83.58708366 -72.89974976 85.27554321 C-71.88186645 86.30068769 -70.86370349 87.32555459 -69.84521484 88.35009766 C-68.95571136 89.25007477 -68.06620789 90.15005188 -67.14974976 91.07730103 C-65.23223054 93.22221608 -65.23223054 93.22221608 -63 93 C-61.76165967 91.55603809 -61.76165967 91.55603809 -60.55078125 89.6015625 C-60.04490479 88.83046143 -59.53902832 88.05936035 -59.01782227 87.26489258 C-58.45506592 86.39372803 -57.89230957 85.52256348 -57.3125 84.625 C-56.03788495 82.68265682 -54.76173395 80.74132104 -53.484375 78.80078125 C-52.77345703 77.71877441 -52.06253906 76.63676758 -51.33007812 75.52197266 C-46.96901208 68.91107996 -42.50643844 62.36780094 -38.0625 55.8125 C-36.5896207 53.63811033 -35.11699867 51.46354657 -33.64439392 49.28897095 C-32.64096646 47.80727317 -31.63743587 46.32564523 -30.63380432 44.84408569 C-26.92190225 39.36396251 -23.21583547 33.87991892 -19.51171875 28.39453125 C-17.93429934 26.05939434 -16.35679667 23.7243137 -14.77926636 21.38925171 C-13.76633862 19.88949769 -12.75374061 18.38952091 -11.7414856 16.88931274 C-10.33378905 14.80318707 -8.92484139 12.71791167 -7.515625 10.6328125 C-7.10104538 10.01771317 -6.68646576 9.40261383 -6.25932312 8.76887512 C-4.24330143 5.78849004 -2.19203859 2.853869 0 0 Z " fill="#DD6B17" transform="translate(255,120)"/>
<path d="M0 0 C7.36251205 6.13542671 13.97426839 12.73369413 20.21875 20 C22.0742521 22.08337078 24.01223101 24.04281207 26 26 C29.25029983 29.20029522 32.24724245 32.54224576 35.21875 36 C37.0742521 38.08337078 39.01223101 40.04281207 41 42 C44.25029983 45.20029522 47.24724245 48.54224576 50.21875 52 C52.69783711 54.78353641 55.35518365 57.36768009 58.015625 59.9765625 C60.62220275 62.63445083 62.99854347 65.45939034 65.359375 68.3359375 C67.17494179 70.35659414 67.17494179 70.35659414 71 72 C86.84 56.16 102.68 40.32 119 24 C122.97622682 25.98811341 125.11077382 27.84068882 128.2434082 30.93701172 C128.75278427 31.43806427 129.26216034 31.93911682 129.78697205 32.45535278 C131.46370035 34.10804525 133.1327257 35.76824482 134.80078125 37.4296875 C135.96323664 38.58317611 137.12576927 39.73658688 138.28837585 40.8899231 C140.72047509 43.30555039 143.14816172 45.72552132 145.57348633 48.14794922 C148.68687375 51.25593553 151.81611839 54.34742068 154.94950581 57.43522453 C157.35391478 59.8099534 159.74705364 62.19579504 162.13716698 64.58490372 C163.28658226 65.73010355 164.44013326 66.87116759 165.59780312 68.00802231 C167.21174307 69.59521868 168.80924791 71.19732622 170.40356445 72.80419922 C171.31749466 73.71305878 172.23142487 74.62191833 173.17304993 75.55831909 C175 78 175 78 174.85188293 80.20959473 C173.90807369 82.19320185 172.88097617 83.96833939 171.6484375 85.7890625 C171.13764648 86.54977051 170.62685547 87.31047852 170.10058594 88.09423828 C169.53114258 88.92938965 168.96169922 89.76454102 168.375 90.625 C167.77977539 91.50784668 167.18455078 92.39069336 166.57128906 93.30029297 C164.80655238 95.91502553 163.03619015 98.52586679 161.26428223 101.13574219 C158.84586959 104.70183254 156.43537196 108.27327651 154.0234375 111.84375 C149.47869268 118.56985175 144.92961149 125.29299975 140.37557983 132.01281738 C136.61185031 136.76565689 136.61185031 136.76565689 134.9609375 142.26171875 C136.52845332 146.3926533 139.44800819 148.82348629 142.625 151.8125 C143.9132809 153.05931749 145.19975997 154.30799959 146.484375 155.55859375 C147.09861328 156.15397949 147.71285156 156.74936523 148.34570312 157.36279297 C150.8615869 159.85268621 153.1442598 162.51206559 155.4296875 165.2109375 C157.82826092 167.94364055 160.44145935 170.45005228 163.03125 173 C165.55425459 175.56305228 167.87562817 178.27345824 170.21875 181 C172.0742521 183.08337078 174.01223101 185.04281207 176 187 C179.25029983 190.20029522 182.24724245 193.54224576 185.21875 197 C187.0742521 199.08337078 189.01223101 201.04281207 191 203 C194.25029983 206.20029522 197.24724245 209.54224576 200.21875 213 C202.0742521 215.08337078 204.01223101 217.04281207 206 219 C209.25029983 222.20029522 212.24724245 225.54224576 215.21875 229 C217.0742521 231.08337078 219.01223101 233.04281207 221 235 C224.24116951 238.19130537 227.23204444 241.52120656 230.19140625 244.97265625 C232.82790861 247.92804442 235.65372348 250.67751935 238.49609375 253.43359375 C240 255 240 255 240 256 C176.31 256 112.62 256 47 256 C35.20532103 193.50433399 35.20532103 193.50433399 30.29296875 167.42578125 C29.1685405 161.45652724 28.04404405 155.48728609 26.91943359 149.51806641 C26.77848365 148.76991515 26.63753371 148.0217639 26.49231255 147.2509414 C24.21629677 135.1705746 21.93643156 123.09093735 19.65514582 111.01156478 C17.31424445 98.61605885 14.97747659 86.21977889 12.64454889 73.82276976 C11.20472919 66.17238944 9.7616838 58.52263206 8.31451428 50.87363859 C7.20541363 45.00961374 6.10206413 39.1445219 5.00086784 33.27900696 C4.54804077 30.8720057 4.09334018 28.46535606 3.63664436 26.05908585 C3.01416575 22.77781121 2.39839432 19.4953467 1.78430176 16.2124939 C1.60142719 15.25723387 1.41855262 14.30197385 1.23013639 13.31776655 C0.39464173 8.81268164 -0.21752204 4.60662849 0 0 Z " fill="#F69A30" transform="translate(16,136)"/>
<path d="M0 0 C-0.55057502 7.3088216 -1.49110056 14.42707102 -2.86659241 21.62394714 C-3.05529024 22.63381615 -3.24398807 23.64368515 -3.43840402 24.68415624 C-4.06612148 28.03671108 -4.70113904 31.3878393 -5.33618164 34.73901367 C-5.78996765 37.15431554 -6.24329947 39.56970278 -6.69621277 41.98516846 C-7.66933136 47.1693709 -8.64558175 52.3529682 -9.62474251 57.53603172 C-11.04040641 65.02969962 -12.45032797 72.52443901 -13.85888892 80.01944486 C-16.14481594 92.18209933 -18.43532936 104.34388529 -20.72875977 116.50512695 C-22.95546709 128.31261427 -25.17999396 140.12050896 -27.40161133 151.92895508 C-27.5387504 152.65787904 -27.67588947 153.38680299 -27.81718428 154.13781556 C-28.5052164 157.79492936 -29.1932059 161.45205118 -29.88117421 165.10917699 C-35.58084166 195.40736402 -41.28804307 225.70412732 -47 256 C-52.5014498 250.55276868 -52.5014498 250.55276868 -54.69140625 247.390625 C-55.15482422 246.72740234 -55.61824219 246.06417969 -56.09570312 245.38085938 C-56.57974609 244.67767578 -57.06378906 243.97449219 -57.5625 243.25 C-58.6261693 241.72386578 -59.68997521 240.19782676 -60.75390625 238.671875 C-61.29289551 237.89521484 -61.83188477 237.11855469 -62.38720703 236.31835938 C-64.90539698 232.69850897 -67.45337218 229.09987054 -70 225.5 C-71.00015995 224.08344626 -72.00015955 222.66677928 -73 221.25 C-73.495 220.54875 -73.99 219.8475 -74.5 219.125 C-112.75 164.9375 -112.75 164.9375 -151 110.75 C-151.49580566 110.04770264 -151.99161133 109.34540527 -152.50244141 108.62182617 C-153.49466183 107.21599185 -154.48652835 105.80990767 -155.47802734 104.40356445 C-158.09409224 100.69395515 -160.71755366 96.9898633 -163.3515625 93.29296875 C-164.17333984 92.13667969 -164.17333984 92.13667969 -165.01171875 90.95703125 C-166.06154181 89.48016152 -167.11351437 88.00481663 -168.16796875 86.53125 C-168.64105469 85.86480469 -169.11414063 85.19835937 -169.6015625 84.51171875 C-170.01744629 83.92865967 -170.43333008 83.34560059 -170.86181641 82.74487305 C-172 81 -172 81 -174 77 C-156.51 59.51 -139.02 42.02 -121 24 C-117.19350513 25.90324743 -115.27382544 27.48291178 -112.32324219 30.44970703 C-110.94226349 31.83091232 -110.94226349 31.83091232 -109.53338623 33.24002075 C-108.5377747 34.24584465 -107.54227352 35.2517778 -106.546875 36.2578125 C-105.52169807 37.28672149 -104.49607725 38.31518837 -103.47003174 39.3432312 C-100.77606836 42.04481581 -98.08816632 44.75235341 -95.40148926 47.46118164 C-92.65671696 50.22644489 -89.90624528 52.98602633 -87.15625 55.74609375 C-81.76524427 61.15852274 -76.38063036 66.57725438 -71 72 C-67.94254966 70.54099458 -65.94313175 69.14640858 -63.63671875 66.6484375 C-63.00499756 65.97031006 -62.37327637 65.29218262 -61.72241211 64.59350586 C-60.71513062 63.49534546 -60.71513062 63.49534546 -59.6875 62.375 C-58.24479619 60.82161038 -56.80208775 59.26822507 -55.359375 57.71484375 C-54.63041016 56.92577637 -53.90144531 56.13670898 -53.15039062 55.32373047 C-49.93083308 51.8446491 -46.68342076 48.39196117 -43.4375 44.9375 C-42.19638721 43.61349436 -40.95550201 42.28927532 -39.71484375 40.96484375 C-37.22827999 38.31080819 -34.74134036 35.65712612 -32.25390625 33.00390625 C-31.63378662 32.34245605 -31.01366699 31.68100586 -30.37475586 30.99951172 C-29.13216714 29.67423478 -27.88949237 28.3490385 -26.64672852 27.02392578 C-23.39473412 23.55610051 -20.14496712 20.08622369 -16.8984375 16.61328125 C-16.22490234 15.89333984 -15.55136719 15.17339844 -14.85742188 14.43164062 C-13.57417523 13.05989421 -12.29157997 11.68753803 -11.00976562 10.31445312 C-1.35663214 0 -1.35663214 0 0 0 Z " fill="#F69A30" transform="translate(496,136)"/>
<path d="M0 0 C3.84083188 1.58806018 6.30628 4.03392881 9.2434082 6.93701172 C9.75278427 7.43806427 10.26216034 7.93911682 10.78697205 8.45535278 C12.46370035 10.10804525 14.1327257 11.76824482 15.80078125 13.4296875 C16.96323664 14.58317611 18.12576927 15.73658688 19.28837585 16.8899231 C21.72047509 19.30555039 24.14816172 21.72552132 26.57348633 24.14794922 C29.68687375 27.25593553 32.81611839 30.34742068 35.94950581 33.43522453 C38.35391478 35.8099534 40.74705364 38.19579504 43.13716698 40.58490372 C44.28658226 41.73010355 45.44013326 42.87116759 46.59780312 44.00802231 C48.21174307 45.59521868 49.80924791 47.19732622 51.40356445 48.80419922 C52.31749466 49.71305878 53.23142487 50.62191833 54.17304993 51.55831909 C56 54 56 54 55.85188293 56.20959473 C54.90807369 58.19320185 53.88097617 59.96833939 52.6484375 61.7890625 C52.13772705 62.54968994 51.6270166 63.31031738 51.10083008 64.09399414 C50.53130615 64.92922607 49.96178223 65.76445801 49.375 66.625 C48.48107544 67.95035767 48.48107544 67.95035767 47.5690918 69.30249023 C45.80374632 71.91738773 44.03283835 74.52844552 42.26104736 77.13897705 C40.37331703 79.92484345 38.49246446 82.71533476 36.61126709 85.50561523 C34.01330196 89.35900649 31.41310317 93.21088878 28.8125 97.0625 C28.29991638 97.82177795 27.78733276 98.58105591 27.25921631 99.36334229 C25.78466168 101.54641005 24.30859764 103.72844883 22.83203125 105.91015625 C22.38879013 106.56664658 21.94554901 107.2231369 21.48887634 107.89952087 C19.3954671 110.98946791 17.27641079 114.04164019 15 117 C11.08790692 115.40584497 8.62781914 112.86106668 5.6875 109.875 C4.95793091 109.13576294 4.95793091 109.13576294 4.21362305 108.3815918 C0.89777871 104.99532634 -2.24907625 101.49809919 -5.32421875 97.89453125 C-7.76654184 95.13339675 -10.40554261 92.58531189 -13.03125 90 C-15.55425459 87.43694772 -17.87562817 84.72654176 -20.21875 82 C-22.0742521 79.91662922 -24.01223101 77.95718793 -26 76 C-29.24638776 72.80355667 -32.24071705 69.46676206 -35.20703125 66.01171875 C-37.74905978 63.15955166 -40.47758615 60.51138606 -43.19921875 57.83203125 C-45.31146524 55.68312973 -47.19266075 53.40978566 -49 51 C-47.46043866 47.34118823 -45.25910943 45.0170821 -42.45849609 42.23144531 C-41.77043129 41.54294243 -41.77043129 41.54294243 -41.06846619 40.8405304 C-39.5581509 39.33160325 -38.04088612 37.82987546 -36.5234375 36.328125 C-35.4721083 35.28052776 -34.42122115 34.23248672 -33.37075806 33.184021 C-30.60998984 30.4308748 -27.84326751 27.68378873 -25.07525635 24.93792725 C-22.24967072 22.13283084 -19.42976555 19.32203679 -16.609375 16.51171875 C-11.07845626 11.00222468 -5.54123411 5.49912123 0 0 Z " fill="#FBB631" transform="translate(135,160)"/>
<path d="M0 0 C3.83950446 1.91975223 5.78781254 3.54473627 8.76855469 6.54150391 C9.45705757 7.22956871 9.45705757 7.22956871 10.1594696 7.93153381 C11.66839675 9.4418491 13.17012454 10.95911388 14.671875 12.4765625 C15.71947224 13.5278917 16.76751328 14.57877885 17.815979 15.62924194 C20.5691252 18.39001016 23.31621127 21.15673249 26.06207275 23.92474365 C28.86716916 26.75032928 31.67796321 29.57023445 34.48828125 32.390625 C39.99777532 37.92154374 45.50087877 43.45876589 51 49 C47.39205992 56.60119415 40.62426306 62.4538843 34.67578125 68.29296875 C32.88946557 70.11259568 31.22522165 72.00453917 29.5625 73.9375 C27.14382221 76.74576347 24.64100317 79.39970593 22 82 C19.37959391 84.58009215 16.89676588 87.21103607 14.5 90 C11.48530583 93.50800776 8.27436256 96.74777887 4.9765625 99.98828125 C2.45252144 102.55721632 0.13439179 105.27198959 -2.1640625 108.04296875 C-4.58789135 110.62666716 -7.24842163 112.76867804 -10 115 C-17.19596443 105.15204769 -24.25851279 95.2328311 -31.10205078 85.13647461 C-35.49730558 78.67533029 -40.04638071 72.33553658 -44.6875 66.04882812 C-45.19410156 65.35724609 -45.70070313 64.66566406 -46.22265625 63.953125 C-46.88406616 63.05835449 -46.88406616 63.05835449 -47.55883789 62.14550781 C-49.53676788 59.20089512 -51.24007336 56.07987161 -53 53 C-35.51 35.51 -18.02 18.02 0 0 Z " fill="#FBB631" transform="translate(375,160)"/>
</svg>
